<?xml version="1.0" encoding="utf-8"?>
<!-- Generator: Adobe Illustrator 25.4.1, SVG Export Plug-In . SVG Version: 6.00 Build 0)  -->
<svg version="1.1" id="Layer_1" xmlns="http://www.w3.org/2000/svg" xmlns:xlink="http://www.w3.org/1999/xlink" x="0px" y="0px"
	 viewBox="0 0 1200 591" style="enable-background:new 0 0 1200 591;" xml:space="preserve">
<style type="text/css">
	.st0{clip-path:url(#SVGID_00000130612360615283412030000017236802861059127941_);}
	.st1{fill:url(#SVGID_00000011748530183672983880000003149728244535618729_);}
	
		.st2{opacity:0.2;fill-rule:evenodd;clip-rule:evenodd;fill:url(#SVGID_00000126324501021401128050000001487827000369765038_);enable-background:new    ;}
	
		.st3{opacity:0.2;fill-rule:evenodd;clip-rule:evenodd;fill:url(#SVGID_00000004537619643503394040000016612757380744870330_);enable-background:new    ;}
	
		.st4{opacity:0.2;fill-rule:evenodd;clip-rule:evenodd;fill:url(#SVGID_00000176732824011196990480000013968327915697060506_);enable-background:new    ;}
	
		.st5{opacity:0.2;fill-rule:evenodd;clip-rule:evenodd;fill:url(#SVGID_00000038414445436138399960000005429762053787669682_);enable-background:new    ;}
	
		.st6{opacity:0.2;fill-rule:evenodd;clip-rule:evenodd;fill:url(#SVGID_00000114758799098156564050000017440806658943466140_);enable-background:new    ;}
	
		.st7{opacity:0.2;fill-rule:evenodd;clip-rule:evenodd;fill:url(#SVGID_00000171713069622389052000000009266053182814052242_);enable-background:new    ;}
	
		.st8{opacity:0.2;fill-rule:evenodd;clip-rule:evenodd;fill:url(#SVGID_00000011750641542712928850000015345359180043620784_);enable-background:new    ;}
	
		.st9{opacity:0.444;fill-rule:evenodd;clip-rule:evenodd;fill:url(#SVGID_00000067223880412001186920000008126804314883444671_);enable-background:new    ;}
	
		.st10{opacity:0.444;fill-rule:evenodd;clip-rule:evenodd;fill:url(#SVGID_00000031912989192794834090000011909161631991873468_);enable-background:new    ;}
	
		.st11{opacity:0.2;fill-rule:evenodd;clip-rule:evenodd;fill:url(#SVGID_00000135650576149272237490000003753701671445255846_);enable-background:new    ;}
	
		.st12{opacity:0.444;fill-rule:evenodd;clip-rule:evenodd;fill:url(#SVGID_00000118373076615603059570000008401781836102157227_);enable-background:new    ;}
	
		.st13{opacity:0.444;fill-rule:evenodd;clip-rule:evenodd;fill:url(#SVGID_00000029024624855004843490000004001531065611979919_);enable-background:new    ;}
	
		.st14{opacity:0.444;fill-rule:evenodd;clip-rule:evenodd;fill:url(#SVGID_00000145744446539781214200000005988233471060811673_);enable-background:new    ;}
	
		.st15{opacity:0.444;fill-rule:evenodd;clip-rule:evenodd;fill:url(#SVGID_00000046314191524213648090000012733813095049453734_);enable-background:new    ;}
	
		.st16{opacity:0.444;fill-rule:evenodd;clip-rule:evenodd;fill:url(#SVGID_00000155120575742738167850000015968420031077649327_);enable-background:new    ;}
	
		.st17{opacity:0.444;fill-rule:evenodd;clip-rule:evenodd;fill:url(#SVGID_00000168819853264496686650000003870032429975233678_);enable-background:new    ;}
	
		.st18{opacity:0.444;fill-rule:evenodd;clip-rule:evenodd;fill:url(#SVGID_00000152261475843931076100000017310862311861253563_);enable-background:new    ;}
	
		.st19{opacity:0.444;fill-rule:evenodd;clip-rule:evenodd;fill:url(#SVGID_00000132782481615903428050000000328043915417718156_);enable-background:new    ;}
	
		.st20{opacity:0.4;fill-rule:evenodd;clip-rule:evenodd;fill:url(#SVGID_00000171715072812640552030000014205393712301752968_);enable-background:new    ;}
	
		.st21{opacity:0.4;fill-rule:evenodd;clip-rule:evenodd;fill:url(#SVGID_00000123407924162698441200000005616694641910694276_);enable-background:new    ;}
	.st22{fill:#FFFFFF;}
</style>
<g>
	<defs>
		<circle id="SVGID_1_" cx="600" cy="295.5" r="265"/>
	</defs>
	<clipPath id="SVGID_00000108281051716712639910000014843994937700408245_">
		<use xlink:href="#SVGID_1_"  style="overflow:visible;"/>
	</clipPath>
	<g style="clip-path:url(#SVGID_00000108281051716712639910000014843994937700408245_);">
		
			<linearGradient id="SVGID_00000180327808576341323280000002476258302777249443_" gradientUnits="userSpaceOnUse" x1="819.254" y1="436.191" x2="390.2731" y2="162.8789" gradientTransform="matrix(1 0 0 -1 0 592)">
			<stop  offset="0" style="stop-color:#EC0677"/>
			<stop  offset="0.1649" style="stop-color:#F05A22"/>
			<stop  offset="0.2486" style="stop-color:#F26A21"/>
			<stop  offset="0.3729" style="stop-color:#F58A1F"/>
			<stop  offset="0.4425" style="stop-color:#F37720"/>
			<stop  offset="0.5441" style="stop-color:#F16222"/>
			<stop  offset="0.6102" style="stop-color:#F05A22"/>
			<stop  offset="0.6666" style="stop-color:#F05627"/>
			<stop  offset="0.7295" style="stop-color:#EF4934"/>
			<stop  offset="0.7955" style="stop-color:#EE334A"/>
			<stop  offset="0.8632" style="stop-color:#ED1669"/>
			<stop  offset="0.9045" style="stop-color:#EC0080"/>
		</linearGradient>
		<path style="fill:url(#SVGID_00000180327808576341323280000002476258302777249443_);" d="M600,560.5c146.4,0,265-118.6,265-265
			s-118.6-265-265-265s-265,118.6-265,265S453.6,560.5,600,560.5z"/>
		
			<linearGradient id="SVGID_00000018923627513635829650000001113402189251190713_" gradientUnits="userSpaceOnUse" x1="463.5778" y1="666.9836" x2="615.0018" y2="446.9494" gradientTransform="matrix(1 0 0 -1 0 592)">
			<stop  offset="0.5027" style="stop-color:#E20782"/>
			<stop  offset="1" style="stop-color:#FFFFFF;stop-opacity:0"/>
		</linearGradient>
		
			<path style="opacity:0.2;fill-rule:evenodd;clip-rule:evenodd;fill:url(#SVGID_00000018923627513635829650000001113402189251190713_);enable-background:new    ;" d="
			M648.7,122l-67.8,46.4L429.3-52.8l67.8-46.4L648.7,122z"/>
		
			<linearGradient id="SVGID_00000136409168935182062650000016121852436789902006_" gradientUnits="userSpaceOnUse" x1="311.4171" y1="575.0745" x2="431.4721" y2="400.6226" gradientTransform="matrix(1 0 0 -1 0 592)">
			<stop  offset="3.740000e-02" style="stop-color:#E20782;stop-opacity:0.1"/>
			<stop  offset="1" style="stop-color:#E20782"/>
		</linearGradient>
		
			<path style="opacity:0.2;fill-rule:evenodd;clip-rule:evenodd;fill:url(#SVGID_00000136409168935182062650000016121852436789902006_);enable-background:new    ;" d="
			M465.8,169.2l-67.8,46.4L246.4-5.5L314.3-52L465.8,169.2z"/>
		
			<linearGradient id="SVGID_00000103243708163139684510000002078682075660777883_" gradientUnits="userSpaceOnUse" x1="369.976" y1="594.0057" x2="490.031" y2="419.5541" gradientTransform="matrix(1 0 0 -1 0 592)">
			<stop  offset="3.740000e-02" style="stop-color:#E20782;stop-opacity:0.1"/>
			<stop  offset="1" style="stop-color:#E20782"/>
		</linearGradient>
		
			<path style="opacity:0.2;fill-rule:evenodd;clip-rule:evenodd;fill:url(#SVGID_00000103243708163139684510000002078682075660777883_);enable-background:new    ;" d="
			M524.3,150.3l-67.8,46.4L305-24.5l67.8-46.4L524.3,150.3z"/>
		
			<linearGradient id="SVGID_00000170262717104527964630000014208363922285090727_" gradientUnits="userSpaceOnUse" x1="438.1392" y1="578.3773" x2="558.1943" y2="403.9257" gradientTransform="matrix(1 0 0 -1 0 592)">
			<stop  offset="3.740000e-02" style="stop-color:#E20782;stop-opacity:0.1"/>
			<stop  offset="1" style="stop-color:#E20782"/>
		</linearGradient>
		
			<path style="opacity:0.2;fill-rule:evenodd;clip-rule:evenodd;fill:url(#SVGID_00000170262717104527964630000014208363922285090727_);enable-background:new    ;" d="
			M592.5,165.9l-67.8,46.4L373.2-8.8L441-55.3L592.5,165.9z"/>
		
			<linearGradient id="SVGID_00000083082873128672921030000008572118003073014714_" gradientUnits="userSpaceOnUse" x1="625.9826" y1="601.5485" x2="746.0376" y2="427.0969" gradientTransform="matrix(1 0 0 -1 0 592)">
			<stop  offset="3.740000e-02" style="stop-color:#E20782;stop-opacity:0.1"/>
			<stop  offset="1" style="stop-color:#E20782"/>
		</linearGradient>
		
			<path style="opacity:0.2;fill-rule:evenodd;clip-rule:evenodd;fill:url(#SVGID_00000083082873128672921030000008572118003073014714_);enable-background:new    ;" d="
			M780.3,142.8l-67.8,46.4L561-32l67.8-46.4L780.3,142.8z"/>
		
			<linearGradient id="SVGID_00000134972293379552790810000012235834604651861683_" gradientUnits="userSpaceOnUse" x1="432.7555" y1="666.1766" x2="582.4016" y2="448.7197" gradientTransform="matrix(1 0 0 -1 0 592)">
			<stop  offset="0" style="stop-color:#E20782"/>
			<stop  offset="0.7718" style="stop-color:#E20782;stop-opacity:0.1"/>
		</linearGradient>
		
			<path style="opacity:0.2;fill-rule:evenodd;clip-rule:evenodd;fill:url(#SVGID_00000134972293379552790810000012235834604651861683_);enable-background:new    ;" d="
			M617.2,122l-67.8,46.4L399-51.3l67.8-46.4L617.2,122z"/>
		
			<linearGradient id="SVGID_00000168104489263309430090000007079862173192753033_" gradientUnits="userSpaceOnUse" x1="717.0764" y1="370.9836" x2="866.7214" y2="153.5276" gradientTransform="matrix(1 0 0 -1 0 592)">
			<stop  offset="0.2128" style="stop-color:#E20782;stop-opacity:0.1"/>
			<stop  offset="1" style="stop-color:#E20782"/>
		</linearGradient>
		
			<path style="opacity:0.2;fill-rule:evenodd;clip-rule:evenodd;fill:url(#SVGID_00000168104489263309430090000007079862173192753033_);enable-background:new    ;" d="
			M901.6,417.2l-67.8,46.4L683.3,243.9l67.8-46.4L901.6,417.2z"/>
		
			<linearGradient id="SVGID_00000000209341971497275500000004854833191181978264_" gradientUnits="userSpaceOnUse" x1="401.9142" y1="666.1269" x2="608.8791" y2="365.9434" gradientTransform="matrix(1 0 0 -1 0 592)">
			<stop  offset="0" style="stop-color:#F89E1C;stop-opacity:0.2"/>
			<stop  offset="0.4534" style="stop-color:#F89E1C"/>
			<stop  offset="1" style="stop-color:#F89E1C;stop-opacity:0.15"/>
		</linearGradient>
		
			<path style="opacity:0.444;fill-rule:evenodd;clip-rule:evenodd;fill:url(#SVGID_00000000209341971497275500000004854833191181978264_);enable-background:new    ;" d="
			M643.9,205.5L576.1,252L368.3-51.5L436.1-98L643.9,205.5z"/>
		
			<linearGradient id="SVGID_00000179613841050339782170000005068789393351104910_" gradientUnits="userSpaceOnUse" x1="584.1917" y1="153.5318" x2="791.1556" y2="-146.6512" gradientTransform="matrix(1 0 0 -1 0 592)">
			<stop  offset="0" style="stop-color:#F89E1C;stop-opacity:0.2"/>
			<stop  offset="0.5539" style="stop-color:#F89E1C;stop-opacity:0.5"/>
			<stop  offset="1" style="stop-color:#F89E1C;stop-opacity:0.15"/>
		</linearGradient>
		
			<path style="opacity:0.444;fill-rule:evenodd;clip-rule:evenodd;fill:url(#SVGID_00000179613841050339782170000005068789393351104910_);enable-background:new    ;" d="
			M826.2,718.1l-67.8,46.4L550.6,461.1l67.8-46.4L826.2,718.1z"/>
		
			<linearGradient id="SVGID_00000137811892584802417490000004440896095311121294_" gradientUnits="userSpaceOnUse" x1="662.0839" y1="156.5009" x2="811.7288" y2="-60.9551" gradientTransform="matrix(1 0 0 -1 0 592)">
			<stop  offset="0.2282" style="stop-color:#E20782;stop-opacity:0.1"/>
			<stop  offset="1" style="stop-color:#E20782"/>
		</linearGradient>
		
			<path style="opacity:0.2;fill-rule:evenodd;clip-rule:evenodd;fill:url(#SVGID_00000137811892584802417490000004440896095311121294_);enable-background:new    ;" d="
			M846.6,631.6l-67.8,46.4L628.3,458.4l67.8-46.4L846.6,631.6z"/>
		
			<linearGradient id="SVGID_00000079464518092923070010000010887915771414504605_" gradientUnits="userSpaceOnUse" x1="281.1681" y1="678.9431" x2="487.9791" y2="378.9814" gradientTransform="matrix(1 0 0 -1 0 592)">
			<stop  offset="0" style="stop-color:#F89E1C;stop-opacity:0.2"/>
			<stop  offset="0.4418" style="stop-color:#F89E1C"/>
			<stop  offset="1" style="stop-color:#F89E1C;stop-opacity:0.15"/>
		</linearGradient>
		
			<path style="opacity:0.444;fill-rule:evenodd;clip-rule:evenodd;fill:url(#SVGID_00000079464518092923070010000010887915771414504605_);enable-background:new    ;" d="
			M523,192.5l-67.8,46.4L247.6-64.3l67.8-46.4L523,192.5z"/>
		
			<linearGradient id="SVGID_00000018915256988668925120000011563785097942702510_" gradientUnits="userSpaceOnUse" x1="754.1508" y1="447.5038" x2="960.9618" y2="147.5428" gradientTransform="matrix(1 0 0 -1 0 592)">
			<stop  offset="0" style="stop-color:#F89E1C;stop-opacity:0.2"/>
			<stop  offset="0.4418" style="stop-color:#F89E1C"/>
			<stop  offset="1" style="stop-color:#F89E1C;stop-opacity:0.15"/>
		</linearGradient>
		
			<path style="opacity:0.444;fill-rule:evenodd;clip-rule:evenodd;fill:url(#SVGID_00000018915256988668925120000011563785097942702510_);enable-background:new    ;" d="
			M996,423.9l-67.8,46.4L720.5,167.1l67.8-46.4L996,423.9z"/>
		
			<linearGradient id="SVGID_00000132084466417065887060000012896847724348760249_" gradientUnits="userSpaceOnUse" x1="217.4825" y1="527.842" x2="424.2935" y2="227.8806" gradientTransform="matrix(1 0 0 -1 0 592)">
			<stop  offset="0" style="stop-color:#F89E1C;stop-opacity:0.2"/>
			<stop  offset="0.4419" style="stop-color:#F89E1C"/>
			<stop  offset="1" style="stop-color:#F89E1C;stop-opacity:0.15"/>
		</linearGradient>
		
			<path style="opacity:0.444;fill-rule:evenodd;clip-rule:evenodd;fill:url(#SVGID_00000132084466417065887060000012896847724348760249_);enable-background:new    ;" d="
			M459.4,343.6l-67.8,46.4L183.9,86.8l67.8-46.4L459.4,343.6z"/>
		
			<linearGradient id="SVGID_00000038374197424709602650000005867455030354058900_" gradientUnits="userSpaceOnUse" x1="769.563" y1="371.4283" x2="976.3741" y2="71.4663" gradientTransform="matrix(1 0 0 -1 0 592)">
			<stop  offset="0" style="stop-color:#F89E1C;stop-opacity:0.2"/>
			<stop  offset="0.4418" style="stop-color:#F89E1C"/>
			<stop  offset="1" style="stop-color:#F89E1C;stop-opacity:0.15"/>
		</linearGradient>
		
			<path style="opacity:0.444;fill-rule:evenodd;clip-rule:evenodd;fill:url(#SVGID_00000038374197424709602650000005867455030354058900_);enable-background:new    ;" d="
			M1011.4,500l-67.8,46.4L735.9,243.2l67.8-46.4L1011.4,500z"/>
		
			<linearGradient id="SVGID_00000065795741295971623250000005535326690897457336_" gradientUnits="userSpaceOnUse" x1="475.6685" y1="748.6846" x2="682.4795" y2="448.7236" gradientTransform="matrix(1 0 0 -1 0 592)">
			<stop  offset="0" style="stop-color:#F89E1C;stop-opacity:0.2"/>
			<stop  offset="0.4418" style="stop-color:#F89E1C"/>
			<stop  offset="1" style="stop-color:#F89E1C;stop-opacity:0.15"/>
		</linearGradient>
		
			<path style="opacity:0.444;fill-rule:evenodd;clip-rule:evenodd;fill:url(#SVGID_00000065795741295971623250000005535326690897457336_);enable-background:new    ;" d="
			M717.5,122.8l-67.8,46.4L442-134.1l67.8-46.4L717.5,122.8z"/>
		
			<linearGradient id="SVGID_00000013193673486963374850000003240167278691001764_" gradientUnits="userSpaceOnUse" x1="499.0513" y1="203.7655" x2="705.8623" y2="-96.1955" gradientTransform="matrix(1 0 0 -1 0 592)">
			<stop  offset="0" style="stop-color:#F89E1C;stop-opacity:0.1"/>
			<stop  offset="0.4404" style="stop-color:#F89E1C;stop-opacity:0.5"/>
			<stop  offset="1" style="stop-color:#F89E1C;stop-opacity:0.15"/>
		</linearGradient>
		
			<path style="opacity:0.444;fill-rule:evenodd;clip-rule:evenodd;fill:url(#SVGID_00000013193673486963374850000003240167278691001764_);enable-background:new    ;" d="
			M740.9,667.7l-67.8,46.4L465.4,410.9l67.8-46.4L740.9,667.7z"/>
		
			<linearGradient id="SVGID_00000054231760977721915320000000425816092440667797_" gradientUnits="userSpaceOnUse" x1="398.6913" y1="753.4672" x2="605.5022" y2="453.5062" gradientTransform="matrix(1 0 0 -1 0 592)">
			<stop  offset="0" style="stop-color:#EC008C;stop-opacity:0.2"/>
			<stop  offset="0.4418" style="stop-color:#EC008C"/>
			<stop  offset="0.9409" style="stop-color:#EC008C;stop-opacity:0"/>
		</linearGradient>
		
			<path style="opacity:0.444;fill-rule:evenodd;clip-rule:evenodd;fill:url(#SVGID_00000054231760977721915320000000425816092440667797_);enable-background:new    ;" d="
			M640.6,118l-67.8,46.4L365.1-138.8l67.8-46.4L640.6,118z"/>
		
			<linearGradient id="SVGID_00000026139871498493451990000015664045514645795514_" gradientUnits="userSpaceOnUse" x1="279.8369" y1="251.4044" x2="445.269" y2="10.9634" gradientTransform="matrix(1 0 0 -1 0 592)">
			<stop  offset="0" style="stop-color:#F89E1C;stop-opacity:0"/>
			<stop  offset="0.8492" style="stop-color:#F05A22"/>
		</linearGradient>
		
			<path style="opacity:0.444;fill-rule:evenodd;clip-rule:evenodd;fill:url(#SVGID_00000026139871498493451990000015664045514645795514_);enable-background:new    ;" d="
			M478.9,558l-67.8,46.4L266.2,392.8l67.8-46.4L478.9,558z"/>
		
			<linearGradient id="SVGID_00000154398156977057971530000015368061415318275235_" gradientUnits="userSpaceOnUse" x1="755.8925" y1="423.7787" x2="929.1625" y2="172.0017" gradientTransform="matrix(1 0 0 -1 0 592)">
			<stop  offset="0.3432" style="stop-color:#E20782;stop-opacity:0.1"/>
			<stop  offset="1" style="stop-color:#E20782"/>
		</linearGradient>
		
			<path style="opacity:0.4;fill-rule:evenodd;clip-rule:evenodd;fill:url(#SVGID_00000154398156977057971530000015368061415318275235_);enable-background:new    ;" d="
			M962.8,396.9L895,443.4L743.3,221.8l67.8-46.4L962.8,396.9z"/>
		
			<linearGradient id="SVGID_00000103961012036861579690000010177044300072965049_" gradientUnits="userSpaceOnUse" x1="456.5214" y1="173.811" x2="629.7924" y2="-77.967" gradientTransform="matrix(1 0 0 -1 0 592)">
			<stop  offset="0.2895" style="stop-color:#F05A22"/>
			<stop  offset="0.8575" style="stop-color:#E20782;stop-opacity:0.1"/>
		</linearGradient>
		
			<path style="opacity:0.4;fill-rule:evenodd;clip-rule:evenodd;fill:url(#SVGID_00000103961012036861579690000010177044300072965049_);enable-background:new    ;" d="
			M663.4,646.9l-67.8,46.4L443.9,471.8l67.8-46.4L663.4,646.9z"/>
		<path class="st22" d="M457.2,312c0,2.6-0.5,5-1.6,7.1c-1.1,2.2-2.6,4-4.6,5.6c-2,1.5-4.3,2.7-7,3.6c-2.7,0.9-5.6,1.3-8.8,1.3
			c-3.8,0-7.3-0.5-10.3-1.6c-3-1-6.1-2.8-9.1-5.2l5-8.2c2.4,2,4.6,3.5,6.6,4.4c1.9,0.9,3.9,1.4,6,1.4c2.5,0,4.5-0.6,6-1.9
			c1.5-1.3,2.3-3,2.3-5.2c0-0.9-0.1-1.8-0.4-2.6c-0.3-0.8-0.8-1.7-1.5-2.5c-0.7-0.9-1.7-1.8-3-2.8c-1.3-1-2.9-2.3-5-3.8
			c-1.6-1.1-3.1-2.2-4.6-3.4c-1.5-1.2-2.8-2.4-4-3.8c-1.2-1.3-2.2-2.8-2.9-4.5c-0.7-1.6-1.1-3.5-1.1-5.6c0-2.4,0.5-4.6,1.5-6.6
			c1-2,2.4-3.7,4.1-5.1c1.7-1.4,3.8-2.5,6.3-3.3c2.4-0.8,5.1-1.2,8-1.2c3,0,6,0.4,8.8,1.2c2.9,0.8,5.5,2,7.9,3.5l-4.6,7.4
			c-3.1-2.2-6.4-3.3-9.8-3.3c-2.1,0-3.8,0.5-5.2,1.6c-1.4,1.1-2,2.5-2,4.1c0,1.6,0.6,3,1.8,4.2c1.2,1.3,3.3,3,6.2,5.3
			c3,2.2,5.5,4.1,7.4,5.8c2,1.6,3.5,3.2,4.6,4.6c1.1,1.5,1.9,2.9,2.4,4.4C457,308.6,457.2,310.2,457.2,312z M509,298.2
			c0,2.3-0.2,4.7-0.7,7.3c-0.5,2.6-1.3,5.1-2.4,7.3c-1.1,2.2-2.6,4.1-4.5,5.5c-1.9,1.5-4.2,2.2-7,2.2c-4.7,0-8.4-1.9-11.2-5.6
			c-2.7-3.8-4.1-8.9-4.1-15.5c0-6.7,1.4-12.1,4.1-16c2.7-4,6.5-5.9,11.2-5.9c4.5,0,8,1.9,10.6,5.6C507.7,286.8,509,291.8,509,298.2z
			 M525.4,297.6c0-4.4-0.6-8.4-1.9-11.9c-1.3-3.6-3-6.7-5.3-9.3c-2.3-2.6-5.1-4.6-8.2-6c-3.2-1.4-6.7-2.2-10.5-2.2
			c-4.2,0-7.9,0.8-11.2,2.4c-3.2,1.6-6.2,4.1-8.9,7.6l-0.1-8.5h-15.1v87.8h15.1v-37.1c1.5,1.7,2.9,3.2,4.3,4.3
			c1.4,1.2,2.8,2.1,4.2,2.9c1.4,0.7,2.9,1.3,4.5,1.6c1.6,0.3,3.3,0.5,5.1,0.5c4,0,7.7-0.8,11.2-2.4c3.4-1.6,6.4-3.8,8.9-6.7
			c2.5-2.9,4.5-6.3,5.9-10.1C524.7,306.5,525.4,302.3,525.4,297.6z M532.1,328.2h15.5v-86h-15.5V328.2z M613.5,328.2v-58.6H598v31.6
			c0,2.8-0.1,5-0.3,6.5c-0.2,1.5-0.6,2.9-1.2,4.2c-2.2,4.8-6.2,7.3-12,7.3c-4.5,0-7.7-1.6-9.5-4.9c-0.7-1.2-1.2-2.7-1.5-4.2
			c-0.3-1.6-0.4-3.8-0.4-6.8v-33.5h-15.5v33.3c0,2.3,0,4.2,0.1,5.8c0,1.6,0.1,3,0.3,4.2c0.2,1.2,0.3,2.3,0.5,3.2
			c0.2,0.9,0.5,1.8,0.9,2.7c1.4,3.6,3.7,6.3,6.9,8.2c3.2,1.8,7.1,2.7,11.7,2.7c4.1,0,7.8-0.7,10.9-2.2c3.1-1.5,6.2-3.8,9.2-7.1
			l0,7.8L613.5,328.2L613.5,328.2z M680.1,328.2v-33.2c0-2.3,0-4.2-0.1-5.8c0-1.6-0.1-3-0.3-4.2c-0.2-1.2-0.3-2.2-0.6-3.1
			c-0.2-0.9-0.5-1.8-0.8-2.6c-1.4-3.5-3.7-6.2-6.9-8.1c-3.2-1.9-7.1-2.9-11.7-2.9c-4.1,0-7.8,0.7-10.9,2.2c-3.1,1.5-6.2,3.8-9.2,7.1
			l0-7.8h-15.6v58.5h15.6v-31.6c0-2.7,0.1-4.9,0.3-6.4c0.2-1.5,0.6-2.9,1.1-4.3c1-2.3,2.6-4.1,4.6-5.3c2.1-1.2,4.6-1.8,7.5-1.8
			c4.5,0,7.7,1.6,9.5,4.9c0.7,1.2,1.2,2.7,1.5,4.2c0.3,1.6,0.4,3.8,0.4,6.8v33.5L680.1,328.2L680.1,328.2L680.1,328.2z M744.1,324.3
			l-23.5-29.3l19.9-21.3l-11.7-5l-20.7,24h-1.6v-50.5h-15.6v86h15.6V297l23.3,32.3L744.1,324.3z M804.3,303.3v-9.6l-46.8-23.5v10.5
			l36.3,17.7l-36.3,17.9v10.3L804.3,303.3z M762,255c-2.9,0-5.2,2.3-5.2,5.3c0,3,2.3,5.3,5.2,5.3c2.9,0,5.2-2.3,5.2-5.3
			C767.2,257.4,764.9,255,762,255L762,255z M762,255.9c2.3,0,4.2,2,4.2,4.5c0,2.5-1.9,4.5-4.2,4.4c-2.3,0-4.2-2-4.2-4.5
			C757.8,257.8,759.7,255.9,762,255.9L762,255.9z M761,260.8h0.6c0.8,0,1.1,0.3,1.3,1c0.1,0.8,0.3,1.3,0.4,1.5h1
			c-0.1-0.2-0.2-0.5-0.4-1.5c-0.1-0.9-0.5-1.3-1-1.4v-0.1c0.6-0.2,1.1-0.7,1.1-1.4c0-0.6-0.2-1-0.5-1.2c-0.4-0.3-0.9-0.4-1.8-0.4
			c-0.7,0-1.2,0.1-1.7,0.1v5.9h0.9L761,260.8L761,260.8L761,260.8z M761,258.1c0.2,0,0.4-0.1,0.7-0.1c1,0,1.4,0.5,1.4,1
			c0,0.7-0.7,1-1.4,1H761V258.1z"/>
	</g>
</g>
</svg>
